<svg width="50" height="50" viewBox="0 0 50 50" fill="none" xmlns="http://www.w3.org/2000/svg">
<circle cx="25" cy="25" r="25" fill="#00CC99"/>
<path d="M19.216 31.256C21.744 31.256 23.568 29.992 23.568 27.736C23.568 25.928 22.48 24.84 20.288 24.488L19.088 24.296C18.24 24.152 17.68 23.976 17.392 23.768C17.12 23.56 16.976 23.256 16.976 22.872C16.976 22.024 17.776 21.512 19.072 21.512C20.24 21.512 21.056 21.944 21.264 22.84H23.44C23.072 20.728 21.376 19.608 19.056 19.608C16.656 19.608 14.784 20.952 14.784 23.064C14.784 24.904 15.824 25.832 17.888 26.168L19.136 26.376C20.96 26.664 21.36 27.144 21.36 27.944C21.36 28.856 20.448 29.352 19.184 29.352C17.856 29.352 16.896 28.76 16.624 27.864H14.448C14.944 29.992 16.608 31.256 19.216 31.256ZM24.8908 25.432C24.8908 28.84 27.0828 31.256 30.2508 31.256C33.0828 31.256 34.6988 29.64 35.1468 27.432H32.9228C32.6667 28.568 31.6748 29.304 30.2508 29.304C28.3788 29.304 27.0988 27.8 27.0988 25.432C27.0988 23.064 28.3788 21.56 30.2508 21.56C31.6748 21.56 32.6188 22.312 32.8908 23.512H35.1468C34.6668 21.24 33.0988 19.608 30.2508 19.608C27.0828 19.608 24.8908 22.024 24.8908 25.432Z" fill="white"/>
</svg>
