<svg width="60" height="60" viewBox="0 0 60 60" fill="none" xmlns="http://www.w3.org/2000/svg">
<circle cx="30" cy="30" r="30" fill="#00CC99"/>
<path d="M27.72 37V34.62H20.3V31.1H27.38V28.72H20.3V25.46H27.62V23.08H17.58V37H27.72ZM29.6916 30.04C29.6916 34.3 32.4316 37.32 36.3916 37.32C39.9316 37.32 41.9516 35.3 42.5116 32.54H39.7316C39.4116 33.96 38.1716 34.88 36.3916 34.88C34.0516 34.88 32.4516 33 32.4516 30.04C32.4516 27.08 34.0516 25.2 36.3916 25.2C38.1716 25.2 39.3516 26.14 39.6916 27.64H42.5116C41.9116 24.8 39.9516 22.76 36.3916 22.76C32.4316 22.76 29.6916 25.78 29.6916 30.04Z" fill="white"/>
</svg>
