<svg width="60" height="60" viewBox="0 0 60 60" fill="none" xmlns="http://www.w3.org/2000/svg">
<circle cx="30" cy="30" r="30" fill="#F5B800"/>
<path d="M23.78 37.32C27.74 37.32 30.16 34.62 30.16 31.12V29.18H23.76V31.5H27.48V31.72C27.48 33.48 25.98 34.88 23.86 34.88C21.26 34.88 19.6 32.98 19.6 30.04C19.6 27.08 21.28 25.2 23.76 25.2C25.46 25.2 26.64 25.94 27.1 27H29.9C29.12 24.34 26.86 22.76 23.76 22.76C19.68 22.76 16.84 25.82 16.84 30.04C16.84 34.24 19.64 37.32 23.78 37.32ZM35.3391 37V32.18H38.1191L41.1791 37H44.3391L40.8991 31.74C42.5991 31.04 43.7191 29.6 43.7191 27.6C43.7191 24.82 41.7191 23.08 38.2991 23.08H32.6191V37H35.3391ZM35.3391 25.44H37.9391C40.0191 25.44 40.9591 26.12 40.9591 27.58C40.9591 29.04 40.0191 29.82 37.9391 29.82H35.3391V25.44Z" fill="white"/>
</svg>
